<svg width="405" height="39" viewBox="0 0 405 39" fill="none" xmlns="http://www.w3.org/2000/svg">
<path d="M105.5 32.8334C102.411 32.0556 99.8611 30.2831 97.8495 27.516C95.8379 24.7489 94.8326 21.6769 94.8335 18.3V10.1667L105.5 6.16669L116.167 10.1667V18.3C116.167 21.6778 115.161 24.7502 113.149 27.5174C111.138 30.2845 108.588 32.0565 105.5 32.8334Z" fill="#509E2F"/>
<path d="M104.214 24L111.5 16.3495L110.214 15L104.214 21.2998L100.786 17.6974L99.5 19.0497L104.214 24Z" fill="white"/>
<path d="M135.532 15.186C136.979 15.186 138.089 15.4427 138.864 15.956C139.639 16.46 140.026 17.2907 140.026 18.448C140.026 19.6147 139.634 20.4593 138.85 20.982C138.066 21.4953 136.946 21.752 135.49 21.752H134.804V25H132.62V15.438C133.096 15.3447 133.6 15.2793 134.132 15.242C134.664 15.2047 135.131 15.186 135.532 15.186ZM135.672 17.048C135.513 17.048 135.355 17.0527 135.196 17.062C135.047 17.0713 134.916 17.0807 134.804 17.09V19.89H135.49C136.246 19.89 136.815 19.7873 137.198 19.582C137.581 19.3767 137.772 18.994 137.772 18.434C137.772 18.1633 137.721 17.9393 137.618 17.762C137.525 17.5847 137.385 17.4447 137.198 17.342C137.021 17.23 136.801 17.1553 136.54 17.118C136.279 17.0713 135.989 17.048 135.672 17.048ZM145.928 19.484C145.741 19.4373 145.522 19.3907 145.27 19.344C145.018 19.288 144.747 19.26 144.458 19.26C144.327 19.26 144.168 19.274 143.982 19.302C143.804 19.3207 143.669 19.344 143.576 19.372V25H141.49V18.028C141.863 17.8973 142.302 17.776 142.806 17.664C143.319 17.5427 143.888 17.482 144.514 17.482C144.626 17.482 144.761 17.4913 144.92 17.51C145.078 17.5193 145.237 17.538 145.396 17.566C145.554 17.5847 145.713 17.6127 145.872 17.65C146.03 17.678 146.166 17.7153 146.278 17.762L145.928 19.484ZM154.147 21.304C154.147 21.8827 154.063 22.4147 153.895 22.9C153.727 23.376 153.485 23.7867 153.167 24.132C152.85 24.468 152.467 24.7293 152.019 24.916C151.581 25.1027 151.086 25.196 150.535 25.196C149.994 25.196 149.499 25.1027 149.051 24.916C148.613 24.7293 148.235 24.468 147.917 24.132C147.6 23.7867 147.353 23.376 147.175 22.9C146.998 22.4147 146.909 21.8827 146.909 21.304C146.909 20.7253 146.998 20.198 147.175 19.722C147.362 19.246 147.614 18.84 147.931 18.504C148.258 18.168 148.641 17.9067 149.079 17.72C149.527 17.5333 150.013 17.44 150.535 17.44C151.067 17.44 151.553 17.5333 151.991 17.72C152.439 17.9067 152.822 18.168 153.139 18.504C153.457 18.84 153.704 19.246 153.881 19.722C154.059 20.198 154.147 20.7253 154.147 21.304ZM152.019 21.304C152.019 20.66 151.889 20.156 151.627 19.792C151.375 19.4187 151.011 19.232 150.535 19.232C150.059 19.232 149.691 19.4187 149.429 19.792C149.168 20.156 149.037 20.66 149.037 21.304C149.037 21.948 149.168 22.4613 149.429 22.844C149.691 23.2173 150.059 23.404 150.535 23.404C151.011 23.404 151.375 23.2173 151.627 22.844C151.889 22.4613 152.019 21.948 152.019 21.304ZM157.574 25C157.098 24.0667 156.612 22.9747 156.118 21.724C155.632 20.4733 155.17 19.1107 154.732 17.636H156.944C157.037 18 157.144 18.3967 157.266 18.826C157.396 19.246 157.527 19.6753 157.658 20.114C157.798 20.5433 157.933 20.9633 158.064 21.374C158.204 21.7847 158.339 22.158 158.47 22.494C158.591 22.158 158.722 21.7847 158.862 21.374C159.002 20.9633 159.137 20.5433 159.268 20.114C159.408 19.6753 159.538 19.246 159.66 18.826C159.79 18.3967 159.902 18 159.996 17.636H162.152C161.713 19.1107 161.246 20.4733 160.752 21.724C160.266 22.9747 159.786 24.0667 159.31 25H157.574ZM165.946 23.544C166.152 23.544 166.348 23.5393 166.534 23.53C166.721 23.5207 166.87 23.5067 166.982 23.488V21.906C166.898 21.8873 166.772 21.8687 166.604 21.85C166.436 21.8313 166.282 21.822 166.142 21.822C165.946 21.822 165.76 21.836 165.582 21.864C165.414 21.8827 165.265 21.9247 165.134 21.99C165.004 22.0553 164.901 22.144 164.826 22.256C164.752 22.368 164.714 22.508 164.714 22.676C164.714 23.0027 164.822 23.2313 165.036 23.362C165.26 23.4833 165.564 23.544 165.946 23.544ZM165.778 17.44C166.394 17.44 166.908 17.51 167.318 17.65C167.729 17.79 168.056 17.9907 168.298 18.252C168.55 18.5133 168.728 18.8307 168.83 19.204C168.933 19.5773 168.984 19.9927 168.984 20.45V24.79C168.686 24.8553 168.27 24.93 167.738 25.014C167.206 25.1073 166.562 25.154 165.806 25.154C165.33 25.154 164.896 25.112 164.504 25.028C164.122 24.944 163.79 24.8087 163.51 24.622C163.23 24.426 163.016 24.174 162.866 23.866C162.717 23.558 162.642 23.18 162.642 22.732C162.642 22.3027 162.726 21.9387 162.894 21.64C163.072 21.3413 163.305 21.1033 163.594 20.926C163.884 20.7487 164.215 20.6227 164.588 20.548C164.962 20.464 165.349 20.422 165.75 20.422C166.021 20.422 166.259 20.436 166.464 20.464C166.679 20.4827 166.852 20.5107 166.982 20.548V20.352C166.982 19.9973 166.875 19.7127 166.66 19.498C166.446 19.2833 166.072 19.176 165.54 19.176C165.186 19.176 164.836 19.204 164.49 19.26C164.145 19.3067 163.846 19.3767 163.594 19.47L163.328 17.79C163.45 17.7527 163.599 17.7153 163.776 17.678C163.963 17.6313 164.164 17.594 164.378 17.566C164.593 17.5287 164.817 17.5007 165.05 17.482C165.293 17.454 165.536 17.44 165.778 17.44ZM167.71 14.99L165.4 16.936L164.448 16.082L166.436 13.814L167.71 14.99ZM172.649 21.262C172.649 21.906 172.793 22.424 173.083 22.816C173.372 23.208 173.801 23.404 174.371 23.404C174.557 23.404 174.73 23.3993 174.889 23.39C175.047 23.3713 175.178 23.3527 175.281 23.334V19.54C175.15 19.456 174.977 19.386 174.763 19.33C174.557 19.274 174.347 19.246 174.133 19.246C173.143 19.246 172.649 19.918 172.649 21.262ZM177.367 24.762C177.18 24.818 176.965 24.874 176.723 24.93C176.48 24.9767 176.223 25.0187 175.953 25.056C175.691 25.0933 175.421 25.1213 175.141 25.14C174.87 25.168 174.609 25.182 174.357 25.182C173.75 25.182 173.209 25.0933 172.733 24.916C172.257 24.7387 171.855 24.4867 171.529 24.16C171.202 23.824 170.95 23.4227 170.773 22.956C170.605 22.48 170.521 21.948 170.521 21.36C170.521 20.7627 170.595 20.226 170.745 19.75C170.894 19.2647 171.109 18.854 171.389 18.518C171.669 18.182 172.009 17.9253 172.411 17.748C172.821 17.5707 173.288 17.482 173.811 17.482C174.1 17.482 174.357 17.51 174.581 17.566C174.814 17.622 175.047 17.7013 175.281 17.804V14.472L177.367 14.136V24.762ZM178.97 21.374C178.97 20.7207 179.068 20.1513 179.264 19.666C179.469 19.1713 179.735 18.7607 180.062 18.434C180.389 18.1073 180.762 17.86 181.182 17.692C181.611 17.524 182.05 17.44 182.498 17.44C183.543 17.44 184.369 17.762 184.976 18.406C185.583 19.0407 185.886 19.9787 185.886 21.22C185.886 21.3413 185.881 21.4767 185.872 21.626C185.863 21.766 185.853 21.892 185.844 22.004H181.112C181.159 22.4333 181.359 22.774 181.714 23.026C182.069 23.278 182.545 23.404 183.142 23.404C183.525 23.404 183.898 23.3713 184.262 23.306C184.635 23.2313 184.939 23.1427 185.172 23.04L185.452 24.734C185.34 24.79 185.191 24.846 185.004 24.902C184.817 24.958 184.607 25.0047 184.374 25.042C184.15 25.0887 183.907 25.126 183.646 25.154C183.385 25.182 183.123 25.196 182.862 25.196C182.199 25.196 181.621 25.098 181.126 24.902C180.641 24.706 180.235 24.44 179.908 24.104C179.591 23.7587 179.353 23.3527 179.194 22.886C179.045 22.4193 178.97 21.9153 178.97 21.374ZM183.87 20.576C183.861 20.3987 183.828 20.226 183.772 20.058C183.725 19.89 183.646 19.7407 183.534 19.61C183.431 19.4793 183.296 19.372 183.128 19.288C182.969 19.204 182.769 19.162 182.526 19.162C182.293 19.162 182.092 19.204 181.924 19.288C181.756 19.3627 181.616 19.4653 181.504 19.596C181.392 19.7267 181.303 19.8807 181.238 20.058C181.182 20.226 181.14 20.3987 181.112 20.576H183.87ZM187.426 15.802L189.512 15.466V17.636H192.018V19.372H189.512V21.962C189.512 22.4007 189.586 22.7507 189.736 23.012C189.894 23.2733 190.207 23.404 190.674 23.404C190.898 23.404 191.126 23.3853 191.36 23.348C191.602 23.3013 191.822 23.2407 192.018 23.166L192.312 24.79C192.06 24.8927 191.78 24.9813 191.472 25.056C191.164 25.1307 190.786 25.168 190.338 25.168C189.768 25.168 189.297 25.0933 188.924 24.944C188.55 24.7853 188.252 24.5707 188.028 24.3C187.804 24.02 187.645 23.684 187.552 23.292C187.468 22.9 187.426 22.466 187.426 21.99V15.802ZM201.798 21.374C201.798 20.73 201.653 20.2167 201.364 19.834C201.074 19.442 200.645 19.246 200.076 19.246C199.889 19.246 199.716 19.2553 199.558 19.274C199.399 19.2833 199.268 19.2973 199.166 19.316V23.082C199.296 23.166 199.464 23.236 199.67 23.292C199.884 23.348 200.099 23.376 200.314 23.376C201.303 23.376 201.798 22.7087 201.798 21.374ZM203.926 21.318C203.926 21.8873 203.856 22.4053 203.716 22.872C203.576 23.3387 203.37 23.74 203.1 24.076C202.829 24.412 202.493 24.6733 202.092 24.86C201.69 25.0467 201.228 25.14 200.706 25.14C200.416 25.14 200.146 25.112 199.894 25.056C199.642 25 199.399 24.9207 199.166 24.818V27.59H197.08V17.888C197.266 17.832 197.481 17.7807 197.724 17.734C197.966 17.678 198.218 17.6313 198.48 17.594C198.75 17.5567 199.021 17.5287 199.292 17.51C199.572 17.482 199.838 17.468 200.09 17.468C200.696 17.468 201.238 17.5613 201.714 17.748C202.19 17.9253 202.591 18.182 202.918 18.518C203.244 18.8447 203.492 19.246 203.66 19.722C203.837 20.198 203.926 20.73 203.926 21.318ZM208.469 25.14C207.862 25.1307 207.367 25.0653 206.985 24.944C206.611 24.8227 206.313 24.6547 206.089 24.44C205.874 24.216 205.725 23.95 205.641 23.642C205.566 23.3247 205.529 22.97 205.529 22.578V14.472L207.615 14.136V22.158C207.615 22.3447 207.629 22.5127 207.657 22.662C207.685 22.8113 207.736 22.9373 207.811 23.04C207.895 23.1427 208.011 23.2267 208.161 23.292C208.31 23.3573 208.511 23.3993 208.763 23.418L208.469 25.14ZM212.978 23.544C213.183 23.544 213.379 23.5393 213.566 23.53C213.752 23.5207 213.902 23.5067 214.014 23.488V21.906C213.93 21.8873 213.804 21.8687 213.636 21.85C213.468 21.8313 213.314 21.822 213.174 21.822C212.978 21.822 212.791 21.836 212.614 21.864C212.446 21.8827 212.296 21.9247 212.166 21.99C212.035 22.0553 211.932 22.144 211.858 22.256C211.783 22.368 211.746 22.508 211.746 22.676C211.746 23.0027 211.853 23.2313 212.068 23.362C212.292 23.4833 212.595 23.544 212.978 23.544ZM212.81 17.44C213.426 17.44 213.939 17.51 214.35 17.65C214.76 17.79 215.087 17.9907 215.33 18.252C215.582 18.5133 215.759 18.8307 215.862 19.204C215.964 19.5773 216.016 19.9927 216.016 20.45V24.79C215.717 24.8553 215.302 24.93 214.77 25.014C214.238 25.1073 213.594 25.154 212.838 25.154C212.362 25.154 211.928 25.112 211.536 25.028C211.153 24.944 210.822 24.8087 210.542 24.622C210.262 24.426 210.047 24.174 209.898 23.866C209.748 23.558 209.674 23.18 209.674 22.732C209.674 22.3027 209.758 21.9387 209.926 21.64C210.103 21.3413 210.336 21.1033 210.626 20.926C210.915 20.7487 211.246 20.6227 211.62 20.548C211.993 20.464 212.38 20.422 212.782 20.422C213.052 20.422 213.29 20.436 213.496 20.464C213.71 20.4827 213.883 20.5107 214.014 20.548V20.352C214.014 19.9973 213.906 19.7127 213.692 19.498C213.477 19.2833 213.104 19.176 212.572 19.176C212.217 19.176 211.867 19.204 211.522 19.26C211.176 19.3067 210.878 19.3767 210.626 19.47L210.36 17.79C210.481 17.7527 210.63 17.7153 210.808 17.678C210.994 17.6313 211.195 17.594 211.41 17.566C211.624 17.5287 211.848 17.5007 212.082 17.482C212.324 17.454 212.567 17.44 212.81 17.44ZM217.832 15.802L219.918 15.466V17.636H222.424V19.372H219.918V21.962C219.918 22.4007 219.993 22.7507 220.142 23.012C220.301 23.2733 220.613 23.404 221.08 23.404C221.304 23.404 221.533 23.3853 221.766 23.348C222.009 23.3013 222.228 23.2407 222.424 23.166L222.718 24.79C222.466 24.8927 222.186 24.9813 221.878 25.056C221.57 25.1307 221.192 25.168 220.744 25.168C220.175 25.168 219.703 25.0933 219.33 24.944C218.957 24.7853 218.658 24.5707 218.434 24.3C218.21 24.02 218.051 23.684 217.958 23.292C217.874 22.9 217.832 22.466 217.832 21.99V15.802ZM228.841 21.262C228.841 19.918 228.346 19.246 227.357 19.246C227.142 19.246 226.927 19.274 226.713 19.33C226.507 19.386 226.339 19.456 226.209 19.54V23.334C226.311 23.3527 226.442 23.3713 226.601 23.39C226.759 23.3993 226.932 23.404 227.119 23.404C227.688 23.404 228.117 23.208 228.407 22.816C228.696 22.424 228.841 21.906 228.841 21.262ZM230.969 21.318C230.969 21.906 230.88 22.438 230.703 22.914C230.535 23.39 230.287 23.796 229.961 24.132C229.634 24.468 229.233 24.7293 228.757 24.916C228.281 25.0933 227.739 25.182 227.133 25.182C226.881 25.182 226.615 25.168 226.335 25.14C226.064 25.1213 225.793 25.0933 225.523 25.056C225.261 25.0187 225.009 24.9767 224.767 24.93C224.524 24.874 224.309 24.818 224.123 24.762V14.472L226.209 14.136V17.804C226.442 17.7013 226.685 17.622 226.937 17.566C227.189 17.51 227.459 17.482 227.749 17.482C228.271 17.482 228.733 17.5753 229.135 17.762C229.536 17.9393 229.872 18.196 230.143 18.532C230.413 18.868 230.619 19.274 230.759 19.75C230.899 20.2167 230.969 20.7393 230.969 21.318ZM238.918 17.636C238.498 19.0547 238.06 20.3847 237.602 21.626C237.145 22.8673 236.646 24.0713 236.104 25.238C235.908 25.658 235.712 26.0127 235.516 26.302C235.32 26.6007 235.106 26.8433 234.872 27.03C234.639 27.226 234.373 27.366 234.074 27.45C233.785 27.5433 233.444 27.59 233.052 27.59C232.726 27.59 232.422 27.5573 232.142 27.492C231.872 27.436 231.648 27.3707 231.47 27.296L231.834 25.63C232.049 25.7047 232.24 25.756 232.408 25.784C232.576 25.812 232.754 25.826 232.94 25.826C233.314 25.826 233.598 25.7233 233.794 25.518C234 25.322 234.172 25.0467 234.312 24.692C233.836 23.7587 233.36 22.7133 232.884 21.556C232.408 20.3893 231.96 19.0827 231.54 17.636H233.752C233.846 18 233.953 18.3967 234.074 18.826C234.205 19.246 234.34 19.6753 234.48 20.114C234.62 20.5433 234.76 20.9633 234.9 21.374C235.05 21.7847 235.19 22.158 235.32 22.494C235.442 22.158 235.568 21.7847 235.698 21.374C235.829 20.9633 235.955 20.5433 236.076 20.114C236.207 19.6753 236.328 19.246 236.44 18.826C236.562 18.3967 236.669 18 236.762 17.636H238.918ZM248.118 21.262C248.118 19.918 247.623 19.246 246.634 19.246C246.419 19.246 246.205 19.274 245.99 19.33C245.785 19.386 245.617 19.456 245.486 19.54V23.334C245.589 23.3527 245.719 23.3713 245.878 23.39C246.037 23.3993 246.209 23.404 246.396 23.404C246.965 23.404 247.395 23.208 247.684 22.816C247.973 22.424 248.118 21.906 248.118 21.262ZM250.246 21.318C250.246 21.906 250.157 22.438 249.98 22.914C249.812 23.39 249.565 23.796 249.238 24.132C248.911 24.468 248.51 24.7293 248.034 24.916C247.558 25.0933 247.017 25.182 246.41 25.182C246.158 25.182 245.892 25.168 245.612 25.14C245.341 25.1213 245.071 25.0933 244.8 25.056C244.539 25.0187 244.287 24.9767 244.044 24.93C243.801 24.874 243.587 24.818 243.4 24.762V14.472L245.486 14.136V17.804C245.719 17.7013 245.962 17.622 246.214 17.566C246.466 17.51 246.737 17.482 247.026 17.482C247.549 17.482 248.011 17.5753 248.412 17.762C248.813 17.9393 249.149 18.196 249.42 18.532C249.691 18.868 249.896 19.274 250.036 19.75C250.176 20.2167 250.246 20.7393 250.246 21.318ZM251.499 21.374C251.499 20.7207 251.597 20.1513 251.793 19.666C251.998 19.1713 252.264 18.7607 252.591 18.434C252.918 18.1073 253.291 17.86 253.711 17.692C254.14 17.524 254.579 17.44 255.027 17.44C256.072 17.44 256.898 17.762 257.505 18.406C258.112 19.0407 258.415 19.9787 258.415 21.22C258.415 21.3413 258.41 21.4767 258.401 21.626C258.392 21.766 258.382 21.892 258.373 22.004H253.641C253.688 22.4333 253.888 22.774 254.243 23.026C254.598 23.278 255.074 23.404 255.671 23.404C256.054 23.404 256.427 23.3713 256.791 23.306C257.164 23.2313 257.468 23.1427 257.701 23.04L257.981 24.734C257.869 24.79 257.72 24.846 257.533 24.902C257.346 24.958 257.136 25.0047 256.903 25.042C256.679 25.0887 256.436 25.126 256.175 25.154C255.914 25.182 255.652 25.196 255.391 25.196C254.728 25.196 254.15 25.098 253.655 24.902C253.17 24.706 252.764 24.44 252.437 24.104C252.12 23.7587 251.882 23.3527 251.723 22.886C251.574 22.4193 251.499 21.9153 251.499 21.374ZM256.399 20.576C256.39 20.3987 256.357 20.226 256.301 20.058C256.254 19.89 256.175 19.7407 256.063 19.61C255.96 19.4793 255.825 19.372 255.657 19.288C255.498 19.204 255.298 19.162 255.055 19.162C254.822 19.162 254.621 19.204 254.453 19.288C254.285 19.3627 254.145 19.4653 254.033 19.596C253.921 19.7267 253.832 19.8807 253.767 20.058C253.711 20.226 253.669 20.3987 253.641 20.576H256.399ZM265.555 19.036C265.387 19.2227 265.158 19.4747 264.869 19.792C264.589 20.1093 264.286 20.4593 263.959 20.842C263.632 21.2247 263.301 21.626 262.965 22.046C262.638 22.466 262.34 22.872 262.069 23.264H265.625V25H259.535V23.768C259.731 23.432 259.964 23.0727 260.235 22.69C260.515 22.298 260.804 21.906 261.103 21.514C261.411 21.122 261.714 20.744 262.013 20.38C262.312 20.0067 262.587 19.6707 262.839 19.372H259.703V17.636H265.555V19.036ZM271.743 21.374C271.743 20.73 271.598 20.2167 271.309 19.834C271.02 19.442 270.59 19.246 270.021 19.246C269.834 19.246 269.662 19.2553 269.503 19.274C269.344 19.2833 269.214 19.2973 269.111 19.316V23.082C269.242 23.166 269.41 23.236 269.615 23.292C269.83 23.348 270.044 23.376 270.259 23.376C271.248 23.376 271.743 22.7087 271.743 21.374ZM273.871 21.318C273.871 21.8873 273.801 22.4053 273.661 22.872C273.521 23.3387 273.316 23.74 273.045 24.076C272.774 24.412 272.438 24.6733 272.037 24.86C271.636 25.0467 271.174 25.14 270.651 25.14C270.362 25.14 270.091 25.112 269.839 25.056C269.587 25 269.344 24.9207 269.111 24.818V27.59H267.025V17.888C267.212 17.832 267.426 17.7807 267.669 17.734C267.912 17.678 268.164 17.6313 268.425 17.594C268.696 17.5567 268.966 17.5287 269.237 17.51C269.517 17.482 269.783 17.468 270.035 17.468C270.642 17.468 271.183 17.5613 271.659 17.748C272.135 17.9253 272.536 18.182 272.863 18.518C273.19 18.8447 273.437 19.246 273.605 19.722C273.782 20.198 273.871 20.73 273.871 21.318ZM275.124 21.374C275.124 20.7207 275.222 20.1513 275.418 19.666C275.623 19.1713 275.889 18.7607 276.216 18.434C276.543 18.1073 276.916 17.86 277.336 17.692C277.765 17.524 278.204 17.44 278.652 17.44C279.697 17.44 280.523 17.762 281.13 18.406C281.737 19.0407 282.04 19.9787 282.04 21.22C282.04 21.3413 282.035 21.4767 282.026 21.626C282.017 21.766 282.007 21.892 281.998 22.004H277.266C277.313 22.4333 277.513 22.774 277.868 23.026C278.223 23.278 278.699 23.404 279.296 23.404C279.679 23.404 280.052 23.3713 280.416 23.306C280.789 23.2313 281.093 23.1427 281.326 23.04L281.606 24.734C281.494 24.79 281.345 24.846 281.158 24.902C280.971 24.958 280.761 25.0047 280.528 25.042C280.304 25.0887 280.061 25.126 279.8 25.154C279.539 25.182 279.277 25.196 279.016 25.196C278.353 25.196 277.775 25.098 277.28 24.902C276.795 24.706 276.389 24.44 276.062 24.104C275.745 23.7587 275.507 23.3527 275.348 22.886C275.199 22.4193 275.124 21.9153 275.124 21.374ZM280.024 20.576C280.015 20.3987 279.982 20.226 279.926 20.058C279.879 19.89 279.8 19.7407 279.688 19.61C279.585 19.4793 279.45 19.372 279.282 19.288C279.123 19.204 278.923 19.162 278.68 19.162C278.447 19.162 278.246 19.204 278.078 19.288C277.91 19.3627 277.77 19.4653 277.658 19.596C277.546 19.7267 277.457 19.8807 277.392 20.058C277.336 20.226 277.294 20.3987 277.266 20.576H280.024ZM283.3 21.318C283.3 20.786 283.384 20.2867 283.552 19.82C283.729 19.344 283.981 18.9333 284.308 18.588C284.635 18.2333 285.031 17.9533 285.498 17.748C285.965 17.5427 286.497 17.44 287.094 17.44C287.486 17.44 287.845 17.4773 288.172 17.552C288.499 17.6173 288.816 17.7153 289.124 17.846L288.69 19.512C288.494 19.4373 288.279 19.372 288.046 19.316C287.813 19.26 287.551 19.232 287.262 19.232C286.646 19.232 286.184 19.4233 285.876 19.806C285.577 20.1887 285.428 20.6927 285.428 21.318C285.428 21.9807 285.568 22.494 285.848 22.858C286.137 23.222 286.637 23.404 287.346 23.404C287.598 23.404 287.869 23.3807 288.158 23.334C288.447 23.2873 288.713 23.2127 288.956 23.11L289.25 24.818C289.007 24.9207 288.704 25.0093 288.34 25.084C287.976 25.1587 287.575 25.196 287.136 25.196C286.464 25.196 285.885 25.098 285.4 24.902C284.915 24.6967 284.513 24.4213 284.196 24.076C283.888 23.7307 283.659 23.3247 283.51 22.858C283.37 22.382 283.3 21.8687 283.3 21.318ZM290.65 17.888C291.005 17.7853 291.462 17.692 292.022 17.608C292.582 17.5147 293.17 17.468 293.786 17.468C294.411 17.468 294.929 17.552 295.34 17.72C295.76 17.8787 296.091 18.1073 296.334 18.406C296.577 18.7047 296.749 19.0593 296.852 19.47C296.955 19.8807 297.006 20.338 297.006 20.842V25H294.92V21.094C294.92 20.422 294.831 19.946 294.654 19.666C294.477 19.386 294.145 19.246 293.66 19.246C293.511 19.246 293.352 19.2553 293.184 19.274C293.016 19.2833 292.867 19.2973 292.736 19.316V25H290.65V17.888ZM298.544 21.374C298.544 20.7207 298.642 20.1513 298.838 19.666C299.043 19.1713 299.309 18.7607 299.636 18.434C299.963 18.1073 300.336 17.86 300.756 17.692C301.185 17.524 301.624 17.44 302.072 17.44C303.117 17.44 303.943 17.762 304.55 18.406C305.157 19.0407 305.46 19.9787 305.46 21.22C305.46 21.3413 305.455 21.4767 305.446 21.626C305.437 21.766 305.427 21.892 305.418 22.004H300.686C300.733 22.4333 300.933 22.774 301.288 23.026C301.643 23.278 302.119 23.404 302.716 23.404C303.099 23.404 303.472 23.3713 303.836 23.306C304.209 23.2313 304.513 23.1427 304.746 23.04L305.026 24.734C304.914 24.79 304.765 24.846 304.578 24.902C304.391 24.958 304.181 25.0047 303.948 25.042C303.724 25.0887 303.481 25.126 303.22 25.154C302.959 25.182 302.697 25.196 302.436 25.196C301.773 25.196 301.195 25.098 300.7 24.902C300.215 24.706 299.809 24.44 299.482 24.104C299.165 23.7587 298.927 23.3527 298.768 22.886C298.619 22.4193 298.544 21.9153 298.544 21.374ZM303.444 20.576C303.435 20.3987 303.402 20.226 303.346 20.058C303.299 19.89 303.22 19.7407 303.108 19.61C303.005 19.4793 302.87 19.372 302.702 19.288C302.543 19.204 302.343 19.162 302.1 19.162C301.867 19.162 301.666 19.204 301.498 19.288C301.33 19.3627 301.19 19.4653 301.078 19.596C300.966 19.7267 300.877 19.8807 300.812 20.058C300.756 20.226 300.714 20.3987 300.686 20.576H303.444Z" fill="#414042"/>
</svg>
