<svg width="29" height="271" viewBox="0 0 29 271" fill="none" xmlns="http://www.w3.org/2000/svg">
<rect x="1.5" y="1.5" width="26" height="28" fill="#BA1B02"/>
<g clip-path="url(#clip0_196_2852)">
<path d="M0 0H7L0 7V0Z" fill="white"/>
<path d="M6.26309 1.44763L1.44775 6.26297" stroke="#BA1B02" stroke-width="3.7797"/>
</g>
<g clip-path="url(#clip1_196_2852)">
<path d="M29 31H22L29 24V31Z" fill="white"/>
<path d="M22.7368 29.5524L27.5522 24.7371" stroke="#BA1B02" stroke-width="3.7797"/>
</g>
<g clip-path="url(#clip2_196_2852)">
<path d="M11.5 17.9993L20 9.49933L18.5 8L11.5 14.9993L7.5 10.9969L6 12.4993L11.5 17.9993Z" fill="white"/>
</g>
<rect x="1.5" y="1.5" width="26" height="28" stroke="#BA1B02"/>
<path d="M15.5 35H13.5V37H15.5V35Z" fill="#BA1B02"/>
<path d="M15.5 42H13.5V44H15.5V42Z" fill="#BA1B02"/>
<rect x="1.5" y="49.5" width="26" height="28" fill="#BA1B02"/>
<g clip-path="url(#clip3_196_2852)">
<path d="M0 48H7L0 55V48Z" fill="white"/>
<path d="M6.26309 49.4476L1.44775 54.263" stroke="#BA1B02" stroke-width="3.7797"/>
</g>
<g clip-path="url(#clip4_196_2852)">
<path d="M29 79H22L29 72V79Z" fill="white"/>
<path d="M22.7368 77.5524L27.5522 72.7371" stroke="#BA1B02" stroke-width="3.7797"/>
</g>
<g clip-path="url(#clip5_196_2852)">
<path d="M11.5 65.9993L20 57.4993L18.5 56L11.5 62.9993L7.5 58.9969L6 60.4993L11.5 65.9993Z" fill="white"/>
</g>
<rect x="1.5" y="49.5" width="26" height="28" stroke="#BA1B02"/>
<path d="M15.5 83H13.5V85H15.5V83Z" fill="#BA1B02"/>
<path d="M15.5 90H13.5V92H15.5V90Z" fill="#BA1B02"/>
<rect x="1.5" y="97.5" width="26" height="28" fill="#BA1B02"/>
<g clip-path="url(#clip6_196_2852)">
<path d="M0 96H7L0 103V96Z" fill="white"/>
<path d="M6.26309 97.4476L1.44775 102.263" stroke="#BA1B02" stroke-width="3.7797"/>
</g>
<g clip-path="url(#clip7_196_2852)">
<path d="M29 127H22L29 120V127Z" fill="white"/>
<path d="M22.7368 125.552L27.5522 120.737" stroke="#BA1B02" stroke-width="3.7797"/>
</g>
<g clip-path="url(#clip8_196_2852)">
<path d="M11.5 113.999L20 105.499L18.5 104L11.5 110.999L7.5 106.997L6 108.499L11.5 113.999Z" fill="white"/>
</g>
<rect x="1.5" y="97.5" width="26" height="28" stroke="#BA1B02"/>
<path d="M15.5 131H13.5V133H15.5V131Z" fill="#BA1B02"/>
<path d="M15.5 138H13.5V140H15.5V138Z" fill="#BA1B02"/>
<path d="M12.0645 157.055V158.355C12.0645 159.055 12.002 159.645 11.877 160.125C11.752 160.605 11.5723 160.992 11.3379 161.285C11.1035 161.578 10.8203 161.791 10.4883 161.924C10.1602 162.053 9.78906 162.117 9.375 162.117C9.04688 162.117 8.74414 162.076 8.4668 161.994C8.18945 161.912 7.93945 161.781 7.7168 161.602C7.49805 161.418 7.31055 161.18 7.1543 160.887C6.99805 160.594 6.87891 160.238 6.79688 159.82C6.71484 159.402 6.67383 158.914 6.67383 158.355V157.055C6.67383 156.355 6.73633 155.77 6.86133 155.297C6.99023 154.824 7.17188 154.445 7.40625 154.16C7.64062 153.871 7.92188 153.664 8.25 153.539C8.58203 153.414 8.95312 153.352 9.36328 153.352C9.69531 153.352 10 153.393 10.2773 153.475C10.5586 153.553 10.8086 153.68 11.0273 153.855C11.2461 154.027 11.4316 154.258 11.584 154.547C11.7402 154.832 11.8594 155.182 11.9414 155.596C12.0234 156.01 12.0645 156.496 12.0645 157.055ZM10.9746 158.531V156.873C10.9746 156.49 10.9512 156.154 10.9043 155.865C10.8613 155.572 10.7969 155.322 10.7109 155.115C10.625 154.908 10.5156 154.74 10.3828 154.611C10.2539 154.482 10.1035 154.389 9.93164 154.33C9.76367 154.268 9.57422 154.236 9.36328 154.236C9.10547 154.236 8.87695 154.285 8.67773 154.383C8.47852 154.477 8.31055 154.627 8.17383 154.834C8.04102 155.041 7.93945 155.312 7.86914 155.648C7.79883 155.984 7.76367 156.393 7.76367 156.873V158.531C7.76367 158.914 7.78516 159.252 7.82812 159.545C7.875 159.838 7.94336 160.092 8.0332 160.307C8.12305 160.518 8.23242 160.691 8.36133 160.828C8.49023 160.965 8.63867 161.066 8.80664 161.133C8.97852 161.195 9.16797 161.227 9.375 161.227C9.64062 161.227 9.87305 161.176 10.0723 161.074C10.2715 160.973 10.4375 160.814 10.5703 160.6C10.707 160.381 10.8086 160.102 10.875 159.762C10.9414 159.418 10.9746 159.008 10.9746 158.531ZM19.2246 159.129V160.02H13.0605V159.381L16.8809 153.469H17.7656L16.8164 155.18L14.291 159.129H19.2246ZM18.0352 153.469V162H16.9512V153.469H18.0352Z" fill="#BA1B02"/>
<g clip-path="url(#clip9_196_2852)">
<path d="M0 144H7L0 151V144Z" fill="white"/>
<path d="M6.26309 145.448L1.44775 150.263" stroke="#BA1B02" stroke-width="3.7797"/>
</g>
<g clip-path="url(#clip10_196_2852)">
<path d="M29 175H22L29 168V175Z" fill="white"/>
<path d="M22.7368 173.552L27.5522 168.737" stroke="#BA1B02" stroke-width="3.7797"/>
</g>
<rect x="1.5" y="145.5" width="26" height="28" stroke="#BA1B02"/>
<path d="M15.5 179H13.5V181H15.5V179Z" fill="#BA1B02"/>
<path d="M15.5 186H13.5V188H15.5V186Z" fill="#BA1B02"/>
<g clip-path="url(#clip11_196_2852)">
<path d="M0 192H7L0 199V192Z" fill="white"/>
<path d="M6.26309 193.448L1.44775 198.263" stroke="#707070" stroke-width="3.7797"/>
</g>
<g clip-path="url(#clip12_196_2852)">
<path d="M29 223H22L29 216V223Z" fill="white"/>
<path d="M22.7368 221.552L27.5522 216.737" stroke="#707070" stroke-width="3.7797"/>
</g>
<path d="M12.0645 205.055V206.355C12.0645 207.055 12.002 207.645 11.877 208.125C11.752 208.605 11.5723 208.992 11.3379 209.285C11.1035 209.578 10.8203 209.791 10.4883 209.924C10.1602 210.053 9.78906 210.117 9.375 210.117C9.04688 210.117 8.74414 210.076 8.4668 209.994C8.18945 209.912 7.93945 209.781 7.7168 209.602C7.49805 209.418 7.31055 209.18 7.1543 208.887C6.99805 208.594 6.87891 208.238 6.79688 207.82C6.71484 207.402 6.67383 206.914 6.67383 206.355V205.055C6.67383 204.355 6.73633 203.77 6.86133 203.297C6.99023 202.824 7.17188 202.445 7.40625 202.16C7.64062 201.871 7.92188 201.664 8.25 201.539C8.58203 201.414 8.95312 201.352 9.36328 201.352C9.69531 201.352 10 201.393 10.2773 201.475C10.5586 201.553 10.8086 201.68 11.0273 201.855C11.2461 202.027 11.4316 202.258 11.584 202.547C11.7402 202.832 11.8594 203.182 11.9414 203.596C12.0234 204.01 12.0645 204.496 12.0645 205.055ZM10.9746 206.531V204.873C10.9746 204.49 10.9512 204.154 10.9043 203.865C10.8613 203.572 10.7969 203.322 10.7109 203.115C10.625 202.908 10.5156 202.74 10.3828 202.611C10.2539 202.482 10.1035 202.389 9.93164 202.33C9.76367 202.268 9.57422 202.236 9.36328 202.236C9.10547 202.236 8.87695 202.285 8.67773 202.383C8.47852 202.477 8.31055 202.627 8.17383 202.834C8.04102 203.041 7.93945 203.312 7.86914 203.648C7.79883 203.984 7.76367 204.393 7.76367 204.873V206.531C7.76367 206.914 7.78516 207.252 7.82812 207.545C7.875 207.838 7.94336 208.092 8.0332 208.307C8.12305 208.518 8.23242 208.691 8.36133 208.828C8.49023 208.965 8.63867 209.066 8.80664 209.133C8.97852 209.195 9.16797 209.227 9.375 209.227C9.64062 209.227 9.87305 209.176 10.0723 209.074C10.2715 208.973 10.4375 208.814 10.5703 208.6C10.707 208.381 10.8086 208.102 10.875 207.762C10.9414 207.418 10.9746 207.008 10.9746 206.531ZM14.8301 205.939L13.9629 205.717L14.3906 201.469H18.7676V202.471H15.3105L15.0527 204.791C15.209 204.701 15.4062 204.617 15.6445 204.539C15.8867 204.461 16.1641 204.422 16.4766 204.422C16.8711 204.422 17.2246 204.49 17.5371 204.627C17.8496 204.76 18.1152 204.951 18.334 205.201C18.5566 205.451 18.7266 205.752 18.8438 206.104C18.9609 206.455 19.0195 206.848 19.0195 207.281C19.0195 207.691 18.9629 208.068 18.8496 208.412C18.7402 208.756 18.5742 209.057 18.3516 209.314C18.1289 209.568 17.8477 209.766 17.5078 209.906C17.1719 210.047 16.7754 210.117 16.3184 210.117C15.9746 210.117 15.6484 210.07 15.3398 209.977C15.0352 209.879 14.7617 209.732 14.5195 209.537C14.2812 209.338 14.0859 209.092 13.9336 208.799C13.7852 208.502 13.6914 208.154 13.6523 207.756H14.6836C14.7305 208.076 14.8242 208.346 14.9648 208.564C15.1055 208.783 15.2891 208.949 15.5156 209.062C15.7461 209.172 16.0137 209.227 16.3184 209.227C16.5762 209.227 16.8047 209.182 17.0039 209.092C17.2031 209.002 17.3711 208.873 17.5078 208.705C17.6445 208.537 17.748 208.334 17.8184 208.096C17.8926 207.857 17.9297 207.59 17.9297 207.293C17.9297 207.023 17.8926 206.773 17.8184 206.543C17.7441 206.312 17.6328 206.111 17.4844 205.939C17.3398 205.768 17.1621 205.635 16.9512 205.541C16.7402 205.443 16.498 205.395 16.2246 205.395C15.8613 205.395 15.5859 205.443 15.3984 205.541C15.2148 205.639 15.0254 205.771 14.8301 205.939Z" fill="#707070"/>
<rect x="1.5" y="193.5" width="26" height="28" stroke="#707070"/>
<path d="M15.5 227H13.5V229H15.5V227Z" fill="#707070"/>
<path d="M15.5 234H13.5V236H15.5V234Z" fill="#707070"/>
<g clip-path="url(#clip13_196_2852)">
<path d="M0 240H7L0 247V240Z" fill="white"/>
<path d="M6.26309 241.448L1.44775 246.263" stroke="#707070" stroke-width="3.7797"/>
</g>
<g clip-path="url(#clip14_196_2852)">
<path d="M29 271H22L29 264V271Z" fill="white"/>
<path d="M22.7368 269.552L27.5522 264.737" stroke="#707070" stroke-width="3.7797"/>
</g>
<path d="M12.0645 253.055V254.355C12.0645 255.055 12.002 255.645 11.877 256.125C11.752 256.605 11.5723 256.992 11.3379 257.285C11.1035 257.578 10.8203 257.791 10.4883 257.924C10.1602 258.053 9.78906 258.117 9.375 258.117C9.04688 258.117 8.74414 258.076 8.4668 257.994C8.18945 257.912 7.93945 257.781 7.7168 257.602C7.49805 257.418 7.31055 257.18 7.1543 256.887C6.99805 256.594 6.87891 256.238 6.79688 255.82C6.71484 255.402 6.67383 254.914 6.67383 254.355V253.055C6.67383 252.355 6.73633 251.77 6.86133 251.297C6.99023 250.824 7.17188 250.445 7.40625 250.16C7.64062 249.871 7.92188 249.664 8.25 249.539C8.58203 249.414 8.95312 249.352 9.36328 249.352C9.69531 249.352 10 249.393 10.2773 249.475C10.5586 249.553 10.8086 249.68 11.0273 249.855C11.2461 250.027 11.4316 250.258 11.584 250.547C11.7402 250.832 11.8594 251.182 11.9414 251.596C12.0234 252.01 12.0645 252.496 12.0645 253.055ZM10.9746 254.531V252.873C10.9746 252.49 10.9512 252.154 10.9043 251.865C10.8613 251.572 10.7969 251.322 10.7109 251.115C10.625 250.908 10.5156 250.74 10.3828 250.611C10.2539 250.482 10.1035 250.389 9.93164 250.33C9.76367 250.268 9.57422 250.236 9.36328 250.236C9.10547 250.236 8.87695 250.285 8.67773 250.383C8.47852 250.477 8.31055 250.627 8.17383 250.834C8.04102 251.041 7.93945 251.312 7.86914 251.648C7.79883 251.984 7.76367 252.393 7.76367 252.873V254.531C7.76367 254.914 7.78516 255.252 7.82812 255.545C7.875 255.838 7.94336 256.092 8.0332 256.307C8.12305 256.518 8.23242 256.691 8.36133 256.828C8.49023 256.965 8.63867 257.066 8.80664 257.133C8.97852 257.195 9.16797 257.227 9.375 257.227C9.64062 257.227 9.87305 257.176 10.0723 257.074C10.2715 256.973 10.4375 256.814 10.5703 256.6C10.707 256.381 10.8086 256.102 10.875 255.762C10.9414 255.418 10.9746 255.008 10.9746 254.531ZM17.6191 249.457H17.7129V250.377H17.6191C17.0449 250.377 16.5645 250.471 16.1777 250.658C15.791 250.842 15.4844 251.09 15.2578 251.402C15.0312 251.711 14.8672 252.059 14.7656 252.445C14.668 252.832 14.6191 253.225 14.6191 253.623V254.877C14.6191 255.256 14.6641 255.592 14.7539 255.885C14.8438 256.174 14.9668 256.418 15.123 256.617C15.2793 256.816 15.4551 256.967 15.6504 257.068C15.8496 257.17 16.0566 257.221 16.2715 257.221C16.5215 257.221 16.7441 257.174 16.9395 257.08C17.1348 256.982 17.2988 256.848 17.4316 256.676C17.5684 256.5 17.6719 256.293 17.7422 256.055C17.8125 255.816 17.8477 255.555 17.8477 255.27C17.8477 255.016 17.8164 254.771 17.7539 254.537C17.6914 254.299 17.5957 254.088 17.4668 253.904C17.3379 253.717 17.1758 253.57 16.9805 253.465C16.7891 253.355 16.5605 253.301 16.2949 253.301C15.9941 253.301 15.7129 253.375 15.4512 253.523C15.1934 253.668 14.9805 253.859 14.8125 254.098C14.6484 254.332 14.5547 254.588 14.5312 254.865L13.957 254.859C14.0117 254.422 14.1133 254.049 14.2617 253.74C14.4141 253.428 14.6016 253.174 14.8242 252.979C15.0508 252.779 15.3027 252.635 15.5801 252.545C15.8613 252.451 16.1582 252.404 16.4707 252.404C16.8965 252.404 17.2637 252.484 17.5723 252.645C17.8809 252.805 18.1348 253.02 18.334 253.289C18.5332 253.555 18.6797 253.855 18.7734 254.191C18.8711 254.523 18.9199 254.865 18.9199 255.217C18.9199 255.619 18.8633 255.996 18.75 256.348C18.6367 256.699 18.4668 257.008 18.2402 257.273C18.0176 257.539 17.7422 257.746 17.4141 257.895C17.0859 258.043 16.7051 258.117 16.2715 258.117C15.8105 258.117 15.4082 258.023 15.0645 257.836C14.7207 257.645 14.4355 257.391 14.209 257.074C13.9824 256.758 13.8125 256.406 13.6992 256.02C13.5859 255.633 13.5293 255.24 13.5293 254.842V254.332C13.5293 253.73 13.5898 253.141 13.7109 252.562C13.832 251.984 14.041 251.461 14.3379 250.992C14.6387 250.523 15.0547 250.15 15.5859 249.873C16.1172 249.596 16.7949 249.457 17.6191 249.457Z" fill="#707070"/>
<rect x="1.5" y="241.5" width="26" height="28" stroke="#707070"/>
<defs>
<clipPath id="clip0_196_2852">
<rect width="7" height="7" fill="white"/>
</clipPath>
<clipPath id="clip1_196_2852">
<rect width="7" height="7" fill="white" transform="translate(22 24)"/>
</clipPath>
<clipPath id="clip2_196_2852">
<rect width="14" height="14" fill="white" transform="translate(6 6)"/>
</clipPath>
<clipPath id="clip3_196_2852">
<rect width="7" height="7" fill="white" transform="translate(0 48)"/>
</clipPath>
<clipPath id="clip4_196_2852">
<rect width="7" height="7" fill="white" transform="translate(22 72)"/>
</clipPath>
<clipPath id="clip5_196_2852">
<rect width="14" height="14" fill="white" transform="translate(6 54)"/>
</clipPath>
<clipPath id="clip6_196_2852">
<rect width="7" height="7" fill="white" transform="translate(0 96)"/>
</clipPath>
<clipPath id="clip7_196_2852">
<rect width="7" height="7" fill="white" transform="translate(22 120)"/>
</clipPath>
<clipPath id="clip8_196_2852">
<rect width="14" height="14" fill="white" transform="translate(6 102)"/>
</clipPath>
<clipPath id="clip9_196_2852">
<rect width="7" height="7" fill="white" transform="translate(0 144)"/>
</clipPath>
<clipPath id="clip10_196_2852">
<rect width="7" height="7" fill="white" transform="translate(22 168)"/>
</clipPath>
<clipPath id="clip11_196_2852">
<rect width="7" height="7" fill="white" transform="translate(0 192)"/>
</clipPath>
<clipPath id="clip12_196_2852">
<rect width="7" height="7" fill="white" transform="translate(22 216)"/>
</clipPath>
<clipPath id="clip13_196_2852">
<rect width="7" height="7" fill="white" transform="translate(0 240)"/>
</clipPath>
<clipPath id="clip14_196_2852">
<rect width="7" height="7" fill="white" transform="translate(22 264)"/>
</clipPath>
</defs>
</svg>
