<svg width="645" height="50" viewBox="0 0 645 50" fill="none" xmlns="http://www.w3.org/2000/svg">
<rect width="50" height="50" rx="25" fill="#0E2A76"/>
<path d="M22.8571 32.1419L35 19.9991L32.8571 17.8572L22.8571 27.8562L17.1429 22.1384L15 24.2848L22.8571 32.1419Z" fill="white"/>
<rect x="62" y="22" width="45" height="6" fill="#0E2A76"/>
<rect x="119" width="50" height="50" rx="25" fill="#0E2A76"/>
<path d="M141.857 32.1419L154 19.9991L151.857 17.8572L141.857 27.8562L136.143 22.1384L134 24.2848L141.857 32.1419Z" fill="white"/>
<rect x="181" y="22" width="45" height="6" fill="#0E2A76"/>
<rect x="238" width="50" height="50" rx="25" fill="#0E2A76"/>
<path d="M260.857 32.1419L273 19.9991L270.857 17.8572L260.857 27.8562L255.143 22.1384L253 24.2848L260.857 32.1419Z" fill="white"/>
<rect x="300" y="22" width="45" height="6" fill="#0E2A76"/>
<path d="M382.176 21.994V27.583H377.944L382.107 21.994H382.176ZM382.176 30.274V34H385.281V30.274H387.42V27.583H385.281V17.9H382.36L375.368 27.284V30.274H382.176Z" fill="#0E2A76"/>
<rect x="359" y="2" width="46" height="46" rx="23" stroke="#0E2A76" stroke-width="4"/>
<rect x="419" y="22" width="45" height="6" fill="#9D9691"/>
<path d="M505.5 20.591V17.9H496.507L494.92 26.801H497.864C498.186 26.3563 498.531 26.0343 498.899 25.835C499.267 25.6203 499.742 25.513 500.325 25.513C500.77 25.513 501.161 25.5897 501.498 25.743C501.835 25.8963 502.127 26.111 502.372 26.387C502.617 26.663 502.801 26.985 502.924 27.353C503.047 27.721 503.108 28.112 503.108 28.526C503.108 28.9247 503.039 29.3157 502.901 29.699C502.778 30.067 502.594 30.3967 502.349 30.688C502.119 30.964 501.828 31.194 501.475 31.378C501.138 31.5467 500.754 31.631 500.325 31.631C499.589 31.631 498.983 31.4163 498.508 30.987C498.033 30.5423 497.757 29.952 497.68 29.216H494.414C494.429 30.0593 494.598 30.803 494.92 31.447C495.257 32.0757 495.702 32.6047 496.254 33.034C496.806 33.4633 497.435 33.7853 498.14 34C498.861 34.1993 499.612 34.299 500.394 34.299C501.207 34.3143 501.973 34.184 502.694 33.908C503.415 33.6167 504.043 33.2103 504.58 32.689C505.132 32.1677 505.569 31.5543 505.891 30.849C506.213 30.1283 506.374 29.354 506.374 28.526C506.374 27.7747 506.259 27.0693 506.029 26.41C505.814 25.7353 505.492 25.1527 505.063 24.662C504.649 24.1713 504.135 23.7803 503.522 23.489C502.909 23.1977 502.203 23.052 501.406 23.052C500.762 23.052 500.187 23.1517 499.681 23.351C499.175 23.535 498.7 23.8493 498.255 24.294L498.209 24.248L498.853 20.591H505.5Z" fill="#9D968F"/>
<rect x="478" y="2" width="46" height="46" rx="23" stroke="#9D968F" stroke-width="4"/>
<rect x="538" y="22" width="45" height="6" fill="#9D9691"/>
<path d="M619.578 25.651C619.992 25.651 620.352 25.743 620.659 25.927C620.981 26.0957 621.242 26.3257 621.441 26.617C621.64 26.893 621.786 27.215 621.878 27.583C621.985 27.9357 622.039 28.3037 622.039 28.687C622.039 29.055 621.985 29.4153 621.878 29.768C621.771 30.1207 621.61 30.435 621.395 30.711C621.18 30.987 620.92 31.2093 620.613 31.378C620.322 31.5467 619.977 31.631 619.578 31.631C619.164 31.631 618.796 31.5467 618.474 31.378C618.152 31.2093 617.876 30.987 617.646 30.711C617.431 30.4197 617.263 30.0977 617.14 29.745C617.033 29.377 616.979 29.009 616.979 28.641C616.979 28.2423 617.033 27.8667 617.14 27.514C617.247 27.146 617.408 26.824 617.623 26.548C617.838 26.272 618.106 26.0573 618.428 25.904C618.765 25.7353 619.149 25.651 619.578 25.651ZM621.924 22.04H625.029C624.937 21.3193 624.745 20.683 624.454 20.131C624.163 19.579 623.787 19.119 623.327 18.751C622.867 18.3677 622.338 18.0763 621.74 17.877C621.142 17.6777 620.498 17.578 619.808 17.578C618.658 17.578 617.684 17.831 616.887 18.337C616.09 18.843 615.438 19.5023 614.932 20.315C614.426 21.1123 614.058 22.0093 613.828 23.006C613.598 24.0027 613.483 24.9993 613.483 25.996C613.483 27.0233 613.575 28.0353 613.759 29.032C613.943 30.0133 614.273 30.895 614.748 31.677C615.223 32.459 615.86 33.0953 616.657 33.586C617.454 34.0613 618.459 34.299 619.67 34.299C620.513 34.299 621.28 34.1533 621.97 33.862C622.66 33.5553 623.25 33.1413 623.741 32.62C624.247 32.0833 624.63 31.4623 624.891 30.757C625.167 30.0363 625.305 29.262 625.305 28.434C625.305 27.79 625.205 27.1537 625.006 26.525C624.807 25.8963 624.492 25.3367 624.063 24.846C623.603 24.34 623.043 23.9413 622.384 23.65C621.725 23.3433 621.05 23.19 620.36 23.19C619.578 23.19 618.888 23.328 618.29 23.604C617.692 23.88 617.171 24.34 616.726 24.984L616.68 24.938C616.695 24.4933 616.757 23.9873 616.864 23.42C616.971 22.8527 617.14 22.3237 617.37 21.833C617.6 21.327 617.907 20.9053 618.29 20.568C618.689 20.2153 619.179 20.039 619.762 20.039C620.329 20.039 620.805 20.2383 621.188 20.637C621.571 21.0357 621.817 21.5033 621.924 22.04Z" fill="#9D968F"/>
<rect x="597" y="2" width="46" height="46" rx="23" stroke="#9D968F" stroke-width="4"/>
</svg>
